<?xml version="1.0" encoding="utf-8"?>
<!-- Generator: Adobe Illustrator 16.0.0, SVG Export Plug-In . SVG Version: 6.00 Build 0)  -->
<!DOCTYPE svg PUBLIC "-//W3C//DTD SVG 1.1//EN" "http://www.w3.org/Graphics/SVG/1.1/DTD/svg11.dtd">
<svg version="1.1" id="Layer_1" xmlns="http://www.w3.org/2000/svg" xmlns:xlink="http://www.w3.org/1999/xlink" x="0px" y="0px"
	 width="255px" height="160px" viewBox="0 0 255 160" enable-background="new 0 0 255 160" xml:space="preserve">
<g id="fruit">
	<g>
		<path opacity="0.5" fill="#AAB3B8" enable-background="new    " d="M242.405,76.974c0.655-9.031-21.448-17.336-49.361-18.557
			c-27.901-1.213-51.051,5.118-51.696,14.148c-0.646,9.029,21.459,17.335,49.36,18.556C218.62,92.334,241.762,86.004,242.405,76.974
			z"/>
		<path fill="#964021" d="M254.997,28.93c0-7.886-30.795-14.271-68.786-14.271c-37.992,0-68.788,6.384-68.788,14.271
			c0,5.125,27.53,38.082,27.53,40.363c0,7.14,18.468,12.928,41.258,12.928c22.789,0,41.266-5.789,41.266-12.928
			C227.477,67.012,254.997,34.055,254.997,28.93z"/>
		<path fill="#B94F27" d="M125.148,23.118c-4.272,3.143-6.081,6.544-4.557,9.702c3.677,7.612,29.133,41.782,52.042,38.303
			c22.916-3.47,34.607-43.276,30.922-50.88c-0.703-1.45-2.053-2.738-3.938-3.868c-4.851-0.221-9.865-0.351-15.037-0.351
			C159.219,16.024,137.085,18.878,125.148,23.118z"/>
		<path fill="#FFE084" d="M254.997,28.93c0-12.509-30.795-22.638-68.786-22.638c-37.992,0-68.788,10.129-68.788,22.638
			c0,12.494,30.795,22.622,68.788,22.622C224.202,51.552,254.997,41.423,254.997,28.93z"/>
		<path fill="#B94F27" d="M186.211,45.649c-30.924,0-57.055-7.993-57.055-17.451s26.131-17.451,57.055-17.451
			c30.934,0,57.055,7.994,57.055,17.451S217.145,45.649,186.211,45.649z"/>
		<path fill="#964021" d="M156.549,19.457c-7.664,0-15.035,0.488-21.791,1.374c-3.55,2.257-5.602,4.751-5.602,7.367
			c0,9.458,26.131,17.451,57.055,17.451c7.674,0,15.036-0.503,21.791-1.388c3.549-2.243,5.602-4.744,5.602-7.353
			C213.604,27.45,187.473,19.457,156.549,19.457z"/>
		<path fill="#FFFFFF" d="M130.778,37.205c-0.539,1.502,6.237,4.722,15.104,7.177c8.877,2.464,16.493,3.234,17.03,1.724
			c0.519-1.495-7.714-1.007-16.591-3.47C137.446,40.172,131.307,35.695,130.778,37.205z"/>
		<path fill="#FFFFFF" d="M157.184,71.399c-2.256-0.61-4.359-0.473-4.711,0.312c-0.342,0.786,1.201,1.915,3.451,2.524
			c2.248,0.61,4.35,0.466,4.702-0.313C160.969,73.137,159.424,72.008,157.184,71.399z"/>
		<g>
			<g>
				<defs>
					<path id="SVGID_1_" d="M129.156,0v28.197c0,9.458,26.131,17.451,57.055,17.451c30.934,0,57.055-7.993,57.055-17.451V0H129.156z
						"/>
				</defs>
				<clipPath id="SVGID_2_">
					<use xlink:href="#SVGID_1_"  overflow="visible"/>
				</clipPath>
				<g clip-path="url(#SVGID_2_)">
					<path fill="#9EB43C" d="M229.745,31.897c-1.739-0.87-1.75-3.547-3.451-4.706c-2.483-1.701-6.823-3.211-8.643-5.278
						c-2.208-2.518-5.855-3.646-9.443-2.7c-0.116-0.535-0.332-1.068-0.674-1.594c-1.771-2.761-3.521-4.904-5.377-6.453
						c0.421-1.868-0.381-3.965-2.022-5.255c-0.05-0.045-0.06-0.045-0.088-0.068c-1.048-0.938-2.641-1.716-4.226-1.563
						c-0.088,0.007-0.106,0.015-0.165,0.015c-2.318-0.114-4.82,0.58-6.365,1.929c-1.134-1.167-2.768-1.944-5.23-1.944
						c-6.6,0-12.424,4.5-15.875,9.061c-4.146,0.748-7.813,2.562-10.414,5.186c-5.797,5.851-12.992,8.405-21.096,11.602
						c-4.381,1.724-4.742,7.764,0,9.396c5.063,1.747,10.266,3.257,15.69,4.111c4.331,0.686,6.512-0.564,9.289-1.678
						c4.771,3.752,11.927,8.208,17.382,5.064c1.32,0.412,2.775,0.549,4.537,0.237c3.87-0.694,8.592-1.458,12.758-2.814
						c0.479,0.251,1.027,0.434,1.651,0.434c0.519,0,0.978-0.129,1.409-0.313c0.283,0.091,0.558,0.184,0.84,0.275
						c0.587,0.19,0.303,0.106-0.859-0.244c1.534,0.793,3.989,1.006,5.729,0.563c2.043-0.519,3.881-1.655,4.928-3.127
						c2.658,1.022,5.15,1.518,7.264,1.068c1.104-0.244,2.014-0.534,2.816-0.854c1.738,1.022,3.9,1.556,5.953,1.343
						C232.561,43.514,236.346,35.74,229.745,31.897z"/>
					<path fill="#9EB43C" d="M140.516,42.933c0-0.808-0.83-1.457-1.856-1.457c-1.037,0-1.878,0.648-1.878,1.457
						c0,0.809,0.841,1.465,1.878,1.465C139.686,44.398,140.516,43.742,140.516,42.933z"/>
					<path fill="#9EB43C" d="M144.709,43.62c0-1.678-1.74-3.035-3.881-3.035s-3.881,1.357-3.881,3.035
						c0,1.663,1.74,3.021,3.881,3.021C142.971,46.64,144.709,45.282,144.709,43.62z"/>
					<path fill="#CBDB2E" d="M157.487,48.974c0-1.876-1.955-3.394-4.359-3.394c-2.405,0-4.36,1.518-4.36,3.394
						s1.955,3.402,4.36,3.402C155.532,52.376,157.487,50.851,157.487,48.974z"/>
					<path fill="#B3CB36" d="M160.734,50.606c0-0.9-0.93-1.632-2.084-1.632c-1.143,0-2.082,0.732-2.082,1.632
						c0,0.892,0.939,1.617,2.082,1.617C159.805,52.223,160.734,51.498,160.734,50.606z"/>
					<path fill="#CBDB2E" d="M175.252,52.177c0-1.739-1.8-3.15-4.039-3.15c-2.218,0-4.027,1.411-4.027,3.15
						c0,1.739,1.81,3.15,4.027,3.15C173.452,55.328,175.252,53.916,175.252,52.177z"/>
					<path fill="#B3CB36" d="M182.828,5.553c0-1.655-1.721-2.982-3.832-2.982c-2.113,0-3.833,1.327-3.833,2.982
						c0,1.655,1.722,2.982,3.833,2.982S182.828,7.208,182.828,5.553z"/>
					<path fill="#9EB43C" d="M189.066,9.648c0-0.846-0.881-1.533-1.956-1.533c-1.085,0-1.955,0.687-1.955,1.533
						c0,0.832,0.87,1.518,1.955,1.518C188.186,11.166,189.066,10.48,189.066,9.648z"/>
					<path fill="#9EB43C" d="M197.572,5.591c0-1.907-1.986-3.455-4.419-3.455c-2.445,0-4.429,1.548-4.429,3.455
						c0,1.906,1.983,3.455,4.429,3.455C195.586,9.046,197.572,7.497,197.572,5.591z"/>
					<path fill="#CBDB2E" d="M226.461,46.335c0-0.854-0.89-1.548-1.986-1.548c-1.084,0-1.974,0.694-1.974,1.548
						c0,0.847,0.89,1.541,1.974,1.541C225.571,47.876,226.461,47.182,226.461,46.335z"/>
					<path fill="#B3CB36" d="M233.401,44.741c0-1.479-1.534-2.677-3.431-2.677c-1.897,0-3.433,1.198-3.433,2.677
						c0,1.488,1.535,2.677,3.433,2.677C231.867,47.418,233.401,46.229,233.401,44.741z"/>
					<path fill="#CBDB2E" d="M204.719,9.442c0-1.243-1.293-2.25-2.875-2.25c-1.594,0-2.875,1.007-2.875,2.25
						c0,1.229,1.281,2.235,2.875,2.235C203.426,11.677,204.719,10.67,204.719,9.442z"/>
					<path fill="#B3CB36" d="M203.135,9.282c0-1.525-1.584-2.761-3.529-2.761c-1.955,0-3.541,1.235-3.541,2.761
						c0,1.518,1.584,2.753,3.541,2.753C201.551,12.036,203.135,10.8,203.135,9.282z"/>
					<path fill="#9EB43C" d="M193.768,9.633c0-0.579-0.597-1.053-1.34-1.053c-0.732,0-1.338,0.474-1.338,1.053
						c0,0.572,0.605,1.038,1.338,1.038C193.171,10.67,193.768,10.205,193.768,9.633z"/>
					<path fill="#9EB43C" d="M186.338,9.054c0-1.731-1.809-3.135-4.017-3.135c-2.22,0-4.019,1.403-4.019,3.135
						c0,1.731,1.797,3.142,4.019,3.142C184.529,12.196,186.338,10.785,186.338,9.054z"/>
					<path fill="#B3CB36" d="M178.693,7.07c0-1.251-1.301-2.257-2.885-2.257c-1.594,0-2.885,1.006-2.885,2.257
						c0,1.235,1.293,2.243,2.885,2.243C177.393,9.313,178.693,8.306,178.693,7.07z"/>
					<path fill="#9EB43C" d="M138.668,39.28c0-1.304-1.359-2.372-3.04-2.372c-1.682,0-3.041,1.068-3.041,2.372
						c0,1.305,1.359,2.373,3.041,2.373C137.309,41.652,138.668,40.585,138.668,39.28z"/>
					<path fill="#CBDB2E" d="M142.11,45.809c0-0.58-0.607-1.045-1.359-1.045c-0.743,0-1.35,0.465-1.35,1.045
						c0,0.587,0.606,1.06,1.35,1.06C141.503,46.869,142.11,46.396,142.11,45.809z"/>
					<path fill="#CBDB2E" d="M149.717,49.783c0-1.617-1.683-2.929-3.755-2.929c-2.073,0-3.743,1.312-3.743,2.929
						c0,1.617,1.67,2.929,3.743,2.929C148.034,52.712,149.717,51.4,149.717,49.783z"/>
					<path fill="#9EB43C" d="M163.549,50.294c0-0.977-1.008-1.762-2.248-1.762c-1.242,0-2.259,0.785-2.259,1.762
						c0,0.969,1.017,1.762,2.259,1.762C162.541,52.056,163.549,51.263,163.549,50.294z"/>
					<path fill="#B3CB36" d="M170.705,48.394c0-1.083-1.145-1.975-2.542-1.975s-2.53,0.892-2.53,1.975
						c0,1.099,1.133,1.983,2.53,1.983C169.561,50.378,170.705,49.493,170.705,48.394z"/>
					<path fill="#B3CB36" d="M179.729,54.13c0-1.388-1.447-2.517-3.227-2.517s-3.227,1.129-3.227,2.517
						c0,1.38,1.445,2.51,3.227,2.51C178.282,56.64,179.729,55.51,179.729,54.13z"/>
					<path fill="#B3CB36" d="M189.631,48.913c0-0.702-0.723-1.281-1.631-1.281c-0.9,0-1.634,0.58-1.634,1.281
						c0,0.701,0.733,1.274,1.634,1.274C188.908,50.187,189.631,49.615,189.631,48.913z"/>
					<path fill="#CBDB2E" d="M186.621,10.564c0-0.9-0.947-1.64-2.102-1.64c-1.164,0-2.102,0.74-2.102,1.64
						c0,0.907,0.938,1.647,2.102,1.647C185.674,12.211,186.621,11.471,186.621,10.564z"/>
					<path fill="#B3CB36" d="M200.992,4.721c0-0.991-1.035-1.808-2.316-1.808c-1.279,0-2.317,0.817-2.317,1.808
						c0,1.007,1.038,1.814,2.317,1.814C199.957,6.536,200.992,5.728,200.992,4.721z"/>
					<path fill="#B3CB36" d="M235.641,46.51c0-1.396-1.457-2.524-3.246-2.524c-1.787,0-3.246,1.128-3.246,2.524
						s1.457,2.525,3.246,2.525S235.641,47.906,235.641,46.51z"/>
					<path fill="#B3CB36" d="M237.477,41.53c0-0.625-0.653-1.129-1.457-1.129c-0.791,0-1.445,0.503-1.445,1.129
						s0.654,1.129,1.445,1.129C236.823,42.659,237.477,42.155,237.477,41.53z"/>
					<path fill="#9EB43C" d="M243.646,39.471c0-0.809-0.851-1.464-1.885-1.464c-1.039,0-1.879,0.656-1.879,1.464
						c0,0.808,0.84,1.472,1.879,1.472C242.796,40.943,243.646,40.279,243.646,39.471z"/>
					<path fill="#9EB43C" d="M209.439,12.501c0-2.043-2.131-3.707-4.742-3.707c-2.63,0-4.75,1.664-4.75,3.707
						c0,2.037,2.12,3.692,4.75,3.692C207.309,16.193,209.439,14.537,209.439,12.501z"/>
					<path fill="#B3CB36" d="M200.982,10.441c0-1.953-2.033-3.532-4.526-3.532c-2.491,0-4.517,1.579-4.517,3.532
						s2.025,3.524,4.517,3.524C198.949,13.965,200.982,12.394,200.982,10.441z"/>
					<path fill="#B3CB36" d="M183.758,12.142c0-1.182-1.232-2.151-2.757-2.151c-1.516,0-2.758,0.969-2.758,2.151
						c0,1.189,1.242,2.151,2.758,2.151C182.525,14.293,183.758,13.332,183.758,12.142z"/>
					<path fill="#9EB43C" d="M177.148,8.077c0-1.525-1.584-2.768-3.551-2.768c-1.963,0-3.558,1.243-3.558,2.768
						c0,1.533,1.595,2.777,3.558,2.777C175.564,10.854,177.148,9.61,177.148,8.077z"/>
					<path fill="#9EB43C" d="M173.364,13.66c0-1.289-1.329-2.319-2.981-2.319c-1.643,0-2.98,1.03-2.98,2.319
						c0,1.281,1.339,2.327,2.98,2.327C172.036,15.987,173.364,14.941,173.364,13.66z"/>
					<path fill="#CBDB2E" d="M233.91,38.25c0-0.793-0.82-1.434-1.848-1.434c-1.017,0-1.848,0.641-1.848,1.434
						c0,0.809,0.831,1.449,1.848,1.449C233.09,39.699,233.91,39.059,233.91,38.25z"/>
					<path fill="#9EB43C" d="M236.422,39.531c0-0.869-0.918-1.586-2.033-1.586c-1.135,0-2.043,0.717-2.043,1.586
						c0,0.885,0.908,1.602,2.043,1.602C235.504,41.133,236.422,40.417,236.422,39.531z"/>
					<path fill="#9EB43C" d="M234.701,34.803c0-0.885-0.919-1.602-2.051-1.602c-1.125,0-2.043,0.717-2.043,1.602
						c0,0.885,0.918,1.586,2.043,1.586C233.782,36.389,234.701,35.688,234.701,34.803z"/>
					<path fill="#B3CB36" d="M235.092,31.981c0-1.358-1.397-2.449-3.127-2.449c-1.73,0-3.128,1.091-3.128,2.449
						c0,1.342,1.397,2.432,3.128,2.432C233.694,34.413,235.092,33.323,235.092,31.981z"/>
					<path fill="#9EB43C" d="M225.785,39.913c0-1.03-1.074-1.869-2.404-1.869c-1.32,0-2.396,0.839-2.396,1.869
						c0,1.037,1.075,1.876,2.396,1.876C224.711,41.789,225.785,40.95,225.785,39.913z"/>
					<path fill="#9EB43C" d="M227.174,43.444c0-1.709-1.779-3.088-3.959-3.088c-2.191,0-3.96,1.379-3.96,3.088
						c0,1.701,1.771,3.089,3.96,3.089C225.395,46.534,227.174,45.146,227.174,43.444z"/>
					<path fill="#B3CB36" d="M234.242,33.102c0-0.801-0.831-1.441-1.857-1.441c-1.017,0-1.848,0.64-1.848,1.441
						c0,0.801,0.831,1.449,1.848,1.449C233.411,34.551,234.242,33.902,234.242,33.102z"/>
					<path fill="#CBDB2E" d="M229.579,29.098c0-0.884-0.919-1.594-2.043-1.594c-1.134,0-2.044,0.709-2.044,1.594
						c0,0.877,0.911,1.587,2.044,1.587C228.66,30.685,229.579,29.975,229.579,29.098z"/>
					<path fill="#B3CB36" d="M224.613,33.689c0-1.327-1.389-2.395-3.08-2.395c-1.701,0-3.079,1.068-3.079,2.395
						c0,1.328,1.378,2.395,3.079,2.395C223.225,36.084,224.613,35.017,224.613,33.689z"/>
					<path fill="#B3CB36" d="M224.084,44.536c0-1.099-1.145-1.984-2.551-1.984c-1.407,0-2.553,0.885-2.553,1.984
						c0,1.098,1.146,1.982,2.553,1.982C222.941,46.518,224.084,45.633,224.084,44.536z"/>
					<path fill="#9EB43C" d="M226.217,44.642c0-2.105-2.211-3.829-4.91-3.829c-2.717,0-4.906,1.724-4.906,3.829
						c0,2.121,2.189,3.829,4.906,3.829C224.006,48.471,226.217,46.762,226.217,44.642z"/>
					<path fill="#9EB43C" d="M228.641,41.43c0-2.021-2.092-3.646-4.674-3.646c-2.58,0-4.673,1.624-4.673,3.646
						c0,2.014,2.093,3.646,4.673,3.646C226.549,45.076,228.641,43.444,228.641,41.43z"/>
					<path fill="#B3CB36" d="M230.713,38.754c0-1.952-2.023-3.524-4.525-3.524c-2.493,0-4.527,1.572-4.527,3.524
						c0,1.953,2.034,3.531,4.527,3.531C228.689,42.285,230.713,40.706,230.713,38.754z"/>
					<path fill="#B3CB36" d="M225.756,32.133c0-0.938-0.978-1.708-2.189-1.708c-1.202,0-2.189,0.771-2.189,1.708
						c0,0.946,0.987,1.716,2.189,1.716C224.778,33.849,225.756,33.079,225.756,32.133z"/>
					<path fill="#CBDB2E" d="M222.666,38.433c0-0.763-0.791-1.373-1.758-1.373c-0.979,0-1.76,0.61-1.76,1.373
						c0,0.763,0.783,1.373,1.76,1.373C221.875,39.806,222.666,39.196,222.666,38.433z"/>
					<path fill="#9EB43C" d="M217.455,41.53c0-1.579-1.66-2.868-3.686-2.868c-2.032,0-3.676,1.289-3.676,2.868
						c0,1.586,1.644,2.876,3.676,2.876C215.795,44.406,217.455,43.116,217.455,41.53z"/>
					<path fill="#B3CB36" d="M211.151,42.971c0-1.243-1.3-2.265-2.896-2.265c-1.603,0-2.902,1.022-2.902,2.265
						c0,1.251,1.3,2.257,2.902,2.257C209.85,45.229,211.151,44.222,211.151,42.971z"/>
					<path fill="#B3CB36" d="M192.43,5.988c0-1.816-1.887-3.28-4.205-3.28c-2.316,0-4.203,1.464-4.203,3.28
						c0,1.814,1.887,3.279,4.203,3.279C190.542,9.267,192.43,7.802,192.43,5.988z"/>
					<path fill="#CBDB2E" d="M204.835,47.983c0-0.854-0.889-1.556-1.995-1.556c-1.104,0-1.994,0.702-1.994,1.556
						c0,0.87,0.891,1.563,1.994,1.563C203.946,49.546,204.835,48.852,204.835,47.983z"/>
					<path fill="#9EB43C" d="M216.01,44.054c0-0.894-0.93-1.603-2.063-1.603s-2.052,0.709-2.052,1.603
						c0,0.885,0.918,1.609,2.052,1.609C215.08,45.664,216.01,44.94,216.01,44.054z"/>
					<path fill="#B3CB36" d="M223.782,39.425c0-2.022-2.103-3.662-4.703-3.662s-4.712,1.64-4.712,3.662
						c0,2.028,2.111,3.676,4.712,3.676S223.782,41.454,223.782,39.425z"/>
					<path fill="#CBDB2E" d="M221.875,32.851c0-0.717-0.753-1.297-1.662-1.297c-0.918,0-1.662,0.58-1.662,1.297
						c0,0.717,0.744,1.304,1.662,1.304C221.122,34.154,221.875,33.567,221.875,32.851z"/>
					<path fill="#B3CB36" d="M226.333,23.194c0-1.892-1.974-3.433-4.409-3.433c-2.426,0-4.398,1.541-4.398,3.433
						c0,1.907,1.974,3.44,4.398,3.44C224.359,26.634,226.333,25.101,226.333,23.194z"/>
					<path fill="#9EB43C" d="M221.073,24.811c0-0.793-0.831-1.442-1.847-1.442c-1.027,0-1.849,0.648-1.849,1.442
						c0,0.793,0.821,1.434,1.849,1.434C220.242,26.245,221.073,25.604,221.073,24.811z"/>
					<path fill="#CBDB2E" d="M219.949,32.599c0-1.9-1.975-3.432-4.398-3.432c-2.436,0-4.41,1.532-4.41,3.432
						c0,1.899,1.975,3.439,4.41,3.439C217.975,36.038,219.949,34.498,219.949,32.599z"/>
					<path fill="#9EB43C" d="M214.396,33.186c0-1.846-1.906-3.333-4.271-3.333c-2.355,0-4.264,1.487-4.264,3.333
						c0,1.831,1.906,3.325,4.264,3.325C212.49,36.511,214.396,35.017,214.396,33.186z"/>
					<path fill="#B3CB36" d="M211.346,33.819c0-1.899-1.965-3.425-4.398-3.425c-2.426,0-4.4,1.526-4.4,3.425s1.975,3.431,4.4,3.431
						C209.381,37.251,211.346,35.718,211.346,33.819z"/>
					<path fill="#9EB43C" d="M200.982,45.13c0-0.763-0.801-1.389-1.778-1.389c-0.987,0-1.778,0.625-1.778,1.389
						c0,0.762,0.791,1.387,1.778,1.387C200.182,46.518,200.982,45.893,200.982,45.13z"/>
					<path fill="#9EB43C" d="M203.143,44.962c0-2.014-2.082-3.646-4.652-3.646c-2.581,0-4.664,1.632-4.664,3.646
						c0,2.006,2.083,3.63,4.664,3.63C201.061,48.592,203.143,46.968,203.143,44.962z"/>
					<path fill="#9EB43C" d="M207.191,44.52c0-1.991-2.072-3.6-4.615-3.6c-2.553,0-4.615,1.609-4.615,3.6
						c0,1.983,2.063,3.601,4.615,3.601C205.119,48.12,207.191,46.503,207.191,44.52z"/>
					<path fill="#CBDB2E" d="M211.727,36.008c0-1.548-1.603-2.799-3.588-2.799c-1.976,0-3.588,1.251-3.588,2.799
						c0,1.541,1.613,2.792,3.588,2.792C210.124,38.799,211.727,37.548,211.727,36.008z"/>
					<path fill="#B3CB36" d="M220.526,32.179c0-2.059-2.132-3.722-4.771-3.722c-2.641,0-4.771,1.663-4.771,3.722
						c0,2.06,2.131,3.722,4.771,3.722C218.395,35.901,220.526,34.239,220.526,32.179z"/>
					<path fill="#B3CB36" d="M217.477,24.308c0-1.525-1.574-2.761-3.53-2.761c-1.945,0-3.528,1.236-3.528,2.761
						c0,1.518,1.583,2.753,3.528,2.753C215.902,27.061,217.477,25.826,217.477,24.308z"/>
					<path fill="#B3CB36" d="M212.227,27.739c0-0.77-0.803-1.403-1.799-1.403c-0.988,0-1.791,0.633-1.791,1.403
						c0,0.779,0.803,1.405,1.791,1.405C211.424,29.144,212.227,28.519,212.227,27.739z"/>
					<path fill="#B3CB36" d="M207.133,29.471c0-1.007-1.047-1.823-2.348-1.823c-1.279,0-2.326,0.815-2.326,1.823
						c0,1.006,1.047,1.823,2.326,1.823C206.086,31.294,207.133,30.478,207.133,29.471z"/>
					<path fill="#B3CB36" d="M198.971,38.647c0-1.571-1.625-2.837-3.639-2.837c-2.003,0-3.636,1.266-3.636,2.837
						c0,1.563,1.633,2.836,3.636,2.836C197.346,41.483,198.971,40.211,198.971,38.647z"/>
					<path fill="#9EB43C" d="M192.908,45.572c0-1.174-1.223-2.12-2.719-2.12c-1.504,0-2.727,0.946-2.727,2.12
						c0,1.175,1.223,2.128,2.727,2.128C191.686,47.7,192.908,46.747,192.908,45.572z"/>
					<path fill="#CBDB2E" d="M190.532,46.64c0-1.03-1.076-1.861-2.396-1.861c-1.32,0-2.396,0.831-2.396,1.861
						c0,1.029,1.075,1.861,2.396,1.861C189.456,48.501,190.532,47.67,190.532,46.64z"/>
					<path fill="#B3CB36" d="M200.944,46.244c0-0.862-0.89-1.556-1.985-1.556c-1.095,0-1.982,0.694-1.982,1.556
						c0,0.846,0.888,1.541,1.982,1.541C200.055,47.784,200.944,47.09,200.944,46.244z"/>
					<path fill="#CBDB2E" d="M207.113,43.879c0-1.19-1.232-2.135-2.737-2.135c-1.516,0-2.739,0.945-2.739,2.135
						c0,1.175,1.224,2.136,2.739,2.136C205.881,46.015,207.113,45.054,207.113,43.879z"/>
					<path fill="#9EB43C" d="M213.653,33.774c0-1.45-1.496-2.624-3.354-2.624c-1.857,0-3.363,1.174-3.363,2.624
						c0,1.441,1.506,2.615,3.363,2.615C212.157,36.389,213.653,35.214,213.653,33.774z"/>
					<path fill="#9EB43C" d="M216.518,31.965c0-1.694-1.76-3.066-3.92-3.066c-2.17,0-3.93,1.373-3.93,3.066s1.76,3.066,3.93,3.066
						C214.758,35.032,216.518,33.659,216.518,31.965z"/>
					<path fill="#B3CB36" d="M217.26,22.203c0-0.954-0.996-1.73-2.219-1.73c-1.232,0-2.219,0.778-2.219,1.73
						c0,0.953,0.986,1.731,2.219,1.731C216.264,23.934,217.26,23.156,217.26,22.203z"/>
					<path fill="#B3CB36" d="M209.791,21.074c0-0.931-0.968-1.679-2.16-1.679c-1.184,0-2.15,0.748-2.15,1.679
						c0,0.93,0.967,1.685,2.15,1.685C208.824,22.759,209.791,22.004,209.791,21.074z"/>
					<path fill="#B3CB36" d="M203.192,33.552c0-0.641-0.665-1.152-1.478-1.152c-0.82,0-1.475,0.511-1.475,1.152
						c0,0.633,0.654,1.152,1.475,1.152C202.528,34.704,203.192,34.185,203.192,33.552z"/>
					<path fill="#9EB43C" d="M197.503,32.453c0-0.717-0.743-1.296-1.672-1.296c-0.919,0-1.67,0.579-1.67,1.296
						c0,0.725,0.751,1.313,1.67,1.313C196.76,33.765,197.503,33.178,197.503,32.453z"/>
					<path fill="#B3CB36" d="M188.586,36.854c0-0.694-0.723-1.258-1.613-1.258c-0.89,0-1.623,0.563-1.623,1.258
						c0,0.695,0.733,1.259,1.623,1.259C187.863,38.113,188.586,37.548,188.586,36.854z"/>
					<ellipse fill="#9EB43C" cx="182.984" cy="46.152" rx="1.349" ry="1.053"/>
					<path fill="#B3CB36" d="M187.59,42.003c0-0.992-1.018-1.792-2.289-1.792c-1.261,0-2.287,0.801-2.287,1.792
						c0,0.977,1.026,1.784,2.287,1.784C186.572,43.787,187.59,42.98,187.59,42.003z"/>
					<path fill="#CBDB2E" d="M186.563,37.846c0-0.604-0.625-1.098-1.407-1.098c-0.772,0-1.408,0.495-1.408,1.098
						c0,0.603,0.636,1.098,1.408,1.098C185.938,38.944,186.563,38.449,186.563,37.846z"/>
					<path fill="#9EB43C" d="M196.867,37.633c0-1.335-1.389-2.418-3.109-2.418c-1.711,0-3.107,1.083-3.107,2.418
						c0,1.334,1.396,2.425,3.107,2.425C195.479,40.058,196.867,38.967,196.867,37.633z"/>
					<path fill="#B3CB36" d="M196.329,31.752c0-0.915-0.958-1.663-2.131-1.663s-2.132,0.748-2.132,1.663
						c0,0.923,0.959,1.663,2.132,1.663S196.329,32.674,196.329,31.752z"/>
					<path fill="#CBDB2E" d="M201.98,31.119c0-1.975-2.053-3.577-4.584-3.577c-2.533,0-4.596,1.603-4.596,3.577
						c0,1.976,2.063,3.585,4.596,3.585C199.928,34.704,201.98,33.094,201.98,31.119z"/>
					<path fill="#CBDB2E" d="M201.844,23.659c0-1.586-1.652-2.868-3.687-2.868s-3.687,1.281-3.687,2.868
						c0,1.594,1.652,2.875,3.687,2.875C200.191,26.535,201.844,25.253,201.844,23.659z"/>
					<path fill="#9EB43C" d="M210.477,16.97c0-1.144-1.194-2.074-2.66-2.074c-1.467,0-2.649,0.93-2.649,2.074
						s1.183,2.067,2.649,2.067S210.477,18.114,210.477,16.97z"/>
					<path fill="#B3CB36" d="M208.227,24.43c0-1.731-1.797-3.127-4.008-3.127c-2.209,0-4,1.396-4,3.127c0,1.724,1.789,3.119,4,3.119
						S208.227,26.153,208.227,24.43z"/>
					<path fill="#9EB43C" d="M195.038,27.328c0-0.595-0.614-1.067-1.377-1.067c-0.753,0-1.369,0.473-1.369,1.067
						c0,0.595,0.616,1.076,1.369,1.076C194.424,28.404,195.038,27.923,195.038,27.328z"/>
					<path fill="#9EB43C" d="M192.946,38.037c0-0.763-0.791-1.389-1.769-1.389c-0.979,0-1.779,0.625-1.779,1.389
						c0,0.762,0.802,1.379,1.779,1.379C192.155,39.417,192.946,38.799,192.946,38.037z"/>
					<path fill="#CBDB2E" d="M179.035,43.086c0-1.22-1.251-2.196-2.814-2.196c-1.545,0-2.817,0.976-2.817,2.196
						s1.271,2.196,2.817,2.196C177.784,45.282,179.035,44.306,179.035,43.086z"/>
					<path fill="#B3CB36" d="M182.604,48.227c0-1.579-1.644-2.853-3.655-2.853c-2.024,0-3.657,1.273-3.657,2.853
						c0,1.571,1.633,2.845,3.657,2.845C180.96,51.071,182.604,49.798,182.604,48.227z"/>
					<path fill="#B3CB36" d="M188.598,44.901c0-0.702-0.724-1.274-1.625-1.274c-0.9,0-1.623,0.572-1.623,1.274
						c0,0.701,0.723,1.266,1.623,1.266C187.874,46.167,188.598,45.603,188.598,44.901z"/>
					<path fill="#CBDB2E" d="M192.232,35.871c0-1.374-1.428-2.471-3.168-2.471c-1.75,0-3.168,1.098-3.168,2.471
						c0,1.365,1.418,2.471,3.168,2.471C190.805,38.342,192.232,37.236,192.232,35.871z"/>
					<path fill="#B3CB36" d="M193.152,28.114c0-0.709-0.744-1.297-1.663-1.297c-0.909,0-1.661,0.588-1.661,1.297
						c0,0.725,0.752,1.304,1.661,1.304C192.408,29.418,193.152,28.838,193.152,28.114z"/>
					<path fill="#9EB43C" d="M203.633,29.326c0-1.625-1.682-2.943-3.765-2.943c-2.082,0-3.763,1.319-3.763,2.943
						c0,1.617,1.682,2.929,3.763,2.929C201.952,32.255,203.633,30.943,203.633,29.326z"/>
					<path fill="#9EB43C" d="M200.475,22.188c0-0.671-0.705-1.221-1.576-1.221c-0.858,0-1.563,0.549-1.563,1.221
						c0,0.679,0.705,1.228,1.563,1.228C199.77,23.416,200.475,22.867,200.475,22.188z"/>
					<path fill="#B3CB36" d="M211.434,18.282c0-2.044-2.131-3.707-4.75-3.707c-2.631,0-4.762,1.663-4.762,3.707
						c0,2.052,2.131,3.707,4.762,3.707C209.303,21.989,211.434,20.334,211.434,18.282z"/>
					<path fill="#B3CB36" d="M204.729,8.474c0-1.083-1.125-1.952-2.504-1.952s-2.504,0.869-2.504,1.952s1.125,1.953,2.504,1.953
						C203.604,10.426,204.729,9.557,204.729,8.474z"/>
					<path fill="#9EB43C" d="M203.359,12.684c0-1.358-1.418-2.472-3.158-2.472c-1.73,0-3.148,1.113-3.148,2.472
						c0,1.35,1.418,2.456,3.148,2.456C201.941,15.14,203.359,14.034,203.359,12.684z"/>
					<path fill="#9EB43C" d="M193.807,18.191c0-0.671-0.693-1.22-1.554-1.22c-0.862,0-1.563,0.549-1.563,1.22
						s0.703,1.221,1.563,1.221C193.113,19.411,193.807,18.862,193.807,18.191z"/>
					<path fill="#CBDB2E" d="M188.703,26.779c0-1.854-1.925-3.355-4.291-3.355s-4.292,1.502-4.292,3.355
						c0,1.846,1.926,3.341,4.292,3.341S188.703,28.625,188.703,26.779z"/>
					<path fill="#9EB43C" d="M183.102,39.73c0-0.916-0.959-1.663-2.142-1.663c-1.182,0-2.141,0.748-2.141,1.663
						c0,0.931,0.958,1.67,2.141,1.67S183.102,40.661,183.102,39.73z"/>
					<path fill="#B3CB36" d="M182.613,40.935c0-1.449-1.506-2.616-3.354-2.616s-3.354,1.167-3.354,2.616
						c0,1.449,1.506,2.617,3.354,2.617C181.107,43.551,182.613,42.384,182.613,40.935z"/>
					<path fill="#B3CB36" d="M177.069,47.327c0-1.968-2.043-3.569-4.575-3.569c-2.531,0-4.585,1.602-4.585,3.569
						c0,1.976,2.054,3.569,4.585,3.569C175.026,50.896,177.069,49.302,177.069,47.327z"/>
					<path fill="#9EB43C" d="M182.378,35.779c0-1.876-1.954-3.401-4.358-3.401c-2.406,0-4.361,1.525-4.361,3.401
						s1.956,3.402,4.361,3.402C180.424,39.181,182.378,37.655,182.378,35.779z"/>
					<path fill="#CBDB2E" d="M193.043,33.125c0-1.777-1.837-3.211-4.104-3.211c-2.279,0-4.116,1.434-4.116,3.211
						c0,1.77,1.837,3.203,4.116,3.203C191.206,36.328,193.043,34.895,193.043,33.125z"/>
					<path fill="#CBDB2E" d="M193.973,18.725c0-1.67-1.74-3.028-3.879-3.028c-2.142,0-3.892,1.358-3.892,3.028
						c0,1.678,1.75,3.036,3.892,3.036C192.232,21.76,193.973,20.402,193.973,18.725z"/>
					<ellipse fill="#9EB43C" cx="197.631" cy="17.947" rx="1.877" ry="1.464"/>
					<path fill="#9EB43C" d="M192.896,17.077c0-1.113-1.164-2.029-2.6-2.029c-1.438,0-2.601,0.916-2.601,2.029
						c0,1.129,1.164,2.029,2.601,2.029C191.734,19.106,192.896,18.206,192.896,17.077z"/>
					<path fill="#CBDB2E" d="M189.338,26.717c0-1.136-1.171-2.058-2.63-2.058c-1.457,0-2.629,0.922-2.629,2.058
						c0,1.129,1.173,2.052,2.629,2.052C188.167,28.769,189.338,27.847,189.338,26.717z"/>
					<path fill="#9EB43C" d="M181.215,24.506c0-0.588-0.604-1.061-1.359-1.061c-0.752,0-1.368,0.473-1.368,1.061
						c0,0.595,0.616,1.067,1.368,1.067C180.609,25.573,181.215,25.101,181.215,24.506z"/>
					<path fill="#B3CB36" d="M173.844,30.768c0-0.839-0.879-1.525-1.965-1.525c-1.076,0-1.955,0.688-1.955,1.525
						c0,0.847,0.879,1.526,1.955,1.526C172.965,32.294,173.844,31.615,173.844,30.768z"/>
					<path fill="#CBDB2E" d="M178.596,37.45c0-0.718-0.744-1.297-1.662-1.297s-1.662,0.579-1.662,1.297
						c0,0.709,0.744,1.296,1.662,1.296S178.596,38.159,178.596,37.45z"/>
					<path fill="#CBDB2E" d="M171.311,46.045c0-1.754-1.828-3.188-4.086-3.188c-2.256,0-4.086,1.434-4.086,3.188
						c0,1.77,1.83,3.189,4.086,3.189C169.482,49.234,171.311,47.815,171.311,46.045z"/>
					<path fill="#CBDB2E" d="M180.014,37.899c0-1.663-1.731-3.013-3.853-3.013c-2.131,0-3.853,1.35-3.853,3.013
						s1.721,3.005,3.853,3.005C178.282,40.904,180.014,39.562,180.014,37.899z"/>
					<path fill="#CBDB2E" d="M178.086,35.474c0-0.817-0.85-1.48-1.904-1.48c-1.047,0-1.898,0.664-1.898,1.48
						c0,0.823,0.852,1.487,1.898,1.487C177.236,36.962,178.086,36.297,178.086,35.474z"/>
					<path fill="#9EB43C" d="M184.168,27.305c0-1.296-1.34-2.34-3.002-2.34c-1.652,0-3.001,1.044-3.001,2.34
						c0,1.289,1.349,2.342,3.001,2.342C182.828,29.647,184.168,28.594,184.168,27.305z"/>
					<path fill="#B3CB36" d="M197.346,20.471c0-2.044-2.119-3.7-4.74-3.7c-2.62,0-4.73,1.656-4.73,3.7
						c0,2.037,2.11,3.692,4.73,3.692C195.225,24.163,197.346,22.508,197.346,20.471z"/>
					<ellipse fill="#9EB43C" cx="193.631" cy="17.581" rx="1.838" ry="1.434"/>
					<path fill="#B3CB36" d="M196.789,14.545c0-0.687-0.714-1.251-1.604-1.251c-0.879,0-1.604,0.564-1.604,1.251
						c0,0.702,0.726,1.251,1.604,1.251C196.075,15.796,196.789,15.247,196.789,14.545z"/>
					<path fill="#B3CB36" d="M189.057,12.554c0-1.654-1.711-2.981-3.822-2.981c-2.112,0-3.833,1.327-3.833,2.981
						c0,1.648,1.721,2.982,3.833,2.982C187.344,15.536,189.057,14.202,189.057,12.554z"/>
					<path fill="#9EB43C" d="M187.629,16.695c0-0.594-0.617-1.075-1.378-1.075c-0.762,0-1.389,0.481-1.389,1.075
						c0,0.61,0.626,1.083,1.389,1.083C187.012,17.779,187.629,17.306,187.629,16.695z"/>
					<path fill="#CBDB2E" d="M187.646,21.593c0-1.709-1.777-3.097-3.978-3.097c-2.19,0-3.97,1.388-3.97,3.097
						c0,1.708,1.779,3.104,3.97,3.104C185.869,24.697,187.646,23.301,187.646,21.593z"/>
					<path fill="#9EB43C" d="M179.26,28.335c0-1.632-1.691-2.944-3.773-2.944c-2.092,0-3.784,1.312-3.784,2.944
						c0,1.625,1.692,2.944,3.784,2.944C177.568,31.279,179.26,29.96,179.26,28.335z"/>
					<path fill="#9EB43C" d="M172.084,28.274c0-1.296-1.34-2.349-3.012-2.349c-1.652,0-3.012,1.052-3.012,2.349
						c0,1.29,1.359,2.35,3.012,2.35C170.744,30.623,172.084,29.563,172.084,28.274z"/>
					<path fill="#CBDB2E" d="M166.833,37.854c0-0.923-0.968-1.678-2.151-1.678c-1.191,0-2.16,0.755-2.16,1.678
						c0,0.93,0.968,1.678,2.16,1.678C165.866,39.531,166.833,38.784,166.833,37.854z"/>
					<path fill="#CBDB2E" d="M162.59,46.473c0-1.755-1.816-3.173-4.064-3.173c-2.249,0-4.068,1.418-4.068,3.173
						c0,1.754,1.819,3.172,4.068,3.172C160.773,49.645,162.59,48.227,162.59,46.473z"/>
					<path fill="#B3CB36" d="M163.883,46.625c0-0.61-0.627-1.098-1.41-1.098c-0.781,0-1.406,0.488-1.406,1.098
						s0.625,1.105,1.406,1.105C163.256,47.731,163.883,47.235,163.883,46.625z"/>
					<path fill="#CBDB2E" d="M167.029,37.152c0-0.839-0.87-1.51-1.945-1.51c-1.076,0-1.945,0.671-1.945,1.51
						s0.869,1.525,1.945,1.525S167.029,37.991,167.029,37.152z"/>
					<path fill="#B3CB36" d="M171.762,34.513c0-2.089-2.19-3.798-4.879-3.798s-4.879,1.708-4.879,3.798
						c0,2.113,2.19,3.813,4.879,3.813S171.762,36.626,171.762,34.513z"/>
					<path fill="#B3CB36" d="M183.816,29.128c0-1.372-1.428-2.486-3.188-2.486c-1.759,0-3.187,1.114-3.187,2.486
						c0,1.374,1.427,2.479,3.187,2.479C182.389,31.607,183.816,30.501,183.816,29.128z"/>
					<path fill="#9EB43C" d="M185.381,23.827c0-1.052-1.086-1.899-2.435-1.899c-1.341,0-2.425,0.847-2.425,1.899
						c0,1.045,1.084,1.892,2.425,1.892C184.295,25.719,185.381,24.872,185.381,23.827z"/>
					<path fill="#9EB43C" d="M188.821,14.271c0-1.465-1.515-2.647-3.382-2.647s-3.383,1.182-3.383,2.647
						c0,1.449,1.516,2.639,3.383,2.639C187.307,16.909,188.821,15.719,188.821,14.271z"/>
					<path fill="#B3CB36" d="M193.416,10.006c0-1.892-1.977-3.424-4.398-3.424c-2.436,0-4.4,1.532-4.4,3.424
						c0,1.9,1.966,3.425,4.4,3.425C191.441,13.431,193.416,11.906,193.416,10.006z"/>
					<path fill="#CBDB2E" d="M192.653,12.379c0-1.022-1.074-1.861-2.394-1.861c-1.313,0-2.386,0.838-2.386,1.861
						c0,1.038,1.073,1.876,2.386,1.876C191.579,14.255,192.653,13.416,192.653,12.379z"/>
					<path fill="#CBDB2E" d="M184.412,12.401c0-2.097-2.189-3.805-4.878-3.805s-4.869,1.708-4.869,3.805
						c0,2.098,2.179,3.799,4.869,3.799C182.223,16.2,184.412,14.499,184.412,12.401z"/>
					<path fill="#B3CB36" d="M177.393,21.676c0-1.861-1.926-3.363-4.313-3.363c-2.386,0-4.32,1.502-4.32,3.363
						c0,1.861,1.936,3.371,4.32,3.371S177.393,23.537,177.393,21.676z"/>
					<path fill="#CBDB2E" d="M166.268,28.495c0-2.105-2.19-3.821-4.89-3.821c-2.696,0-4.887,1.716-4.887,3.821
						c0,2.113,2.19,3.813,4.887,3.813C164.077,32.309,166.268,30.608,166.268,28.495z"/>
					<path fill="#9EB43C" d="M152.189,37.701c0-0.641-0.666-1.16-1.487-1.16s-1.476,0.519-1.476,1.16
						c0,0.633,0.654,1.144,1.476,1.144C151.525,38.845,152.189,38.334,152.189,37.701z"/>
					<path fill="#CBDB2E" d="M148.62,40.759c0-1.16-1.202-2.097-2.688-2.097c-1.496,0-2.697,0.938-2.697,2.097
						c0,1.159,1.201,2.098,2.697,2.098C147.418,42.857,148.62,41.919,148.62,40.759z"/>
					<path fill="#CBDB2E" d="M161.896,40.996c0-1.723-1.797-3.135-4.008-3.135c-2.221,0-4.01,1.412-4.01,3.135
						c0,1.724,1.789,3.127,4.01,3.127C160.1,44.123,161.896,42.719,161.896,40.996z"/>
					<path fill="#CBDB2E" d="M164.469,28.457c0-1.854-1.916-3.341-4.281-3.341c-2.368,0-4.282,1.488-4.282,3.341
						c0,1.83,1.915,3.333,4.282,3.333C162.553,31.79,164.469,30.287,164.469,28.457z"/>
					<path fill="#9EB43C" d="M173.911,27.183c0-1.365-1.407-2.463-3.157-2.463s-3.156,1.099-3.156,2.463
						c0,1.366,1.406,2.464,3.156,2.464S173.911,28.549,173.911,27.183z"/>
					<path fill="#9EB43C" d="M170.197,22.188c0-1.48-1.534-2.678-3.432-2.678c-1.888,0-3.422,1.198-3.422,2.678
						c0,1.472,1.534,2.669,3.422,2.669C168.662,24.857,170.197,23.659,170.197,22.188z"/>
					<path fill="#9EB43C" d="M172.721,16.528c0-0.899-0.939-1.632-2.095-1.632c-1.153,0-2.082,0.732-2.082,1.632
						s0.929,1.632,2.082,1.632C171.781,18.16,172.721,17.428,172.721,16.528z"/>
					<path fill="#CBDB2E" d="M181.127,11.761c0-1.556-1.613-2.814-3.598-2.814c-1.993,0-3.607,1.259-3.607,2.814
						c0,1.548,1.614,2.814,3.607,2.814C179.514,14.575,181.127,13.309,181.127,11.761z"/>
					<path fill="#B3CB36" d="M185.751,11.906c0-1.922-1.993-3.478-4.448-3.478c-2.463,0-4.447,1.556-4.447,3.478
						c0,1.906,1.984,3.462,4.447,3.462C183.758,15.368,185.751,13.813,185.751,11.906z"/>
					<path fill="#B3CB36" d="M171.059,15.102c0-1.656-1.722-2.998-3.834-2.998c-2.121,0-3.842,1.342-3.842,2.998
						c0,1.654,1.721,2.998,3.842,2.998C169.337,18.1,171.059,16.756,171.059,15.102z"/>
					<path fill="#9EB43C" d="M160.567,24.293c0-0.954-0.988-1.724-2.2-1.724c-1.223,0-2.21,0.77-2.21,1.724
						c0,0.946,0.987,1.708,2.21,1.708C159.579,26.001,160.567,25.239,160.567,24.293z"/>
					<path fill="#B3CB36" d="M149.725,32.866c0-0.832-0.86-1.503-1.916-1.503s-1.926,0.671-1.926,1.503
						c0,0.823,0.87,1.495,1.926,1.495C148.865,34.36,149.725,33.689,149.725,32.866z"/>
					<path fill="#CBDB2E" d="M152.961,39.631c0-2.021-2.092-3.654-4.683-3.654c-2.581,0-4.685,1.632-4.685,3.654
						s2.104,3.653,4.685,3.653C150.869,43.284,152.961,41.652,152.961,39.631z"/>
					<path fill="#B3CB36" d="M162.533,32.073c0-1.206-1.242-2.167-2.775-2.167c-1.537,0-2.777,0.961-2.777,2.167
						c0,1.197,1.24,2.166,2.777,2.166C161.291,34.239,162.533,33.27,162.533,32.073z"/>
					<path fill="#9EB43C" d="M168.869,22.035c0-1.8-1.857-3.242-4.146-3.242c-2.287,0-4.154,1.442-4.154,3.242
						c0,1.785,1.867,3.233,4.154,3.233C167.012,25.268,168.869,23.82,168.869,22.035z"/>
					<path fill="#B3CB36" d="M174.02,22.691c0-1.418-1.486-2.578-3.313-2.578c-1.819,0-3.304,1.159-3.304,2.578
						c0,1.434,1.484,2.578,3.304,2.578C172.533,25.269,174.02,24.125,174.02,22.691z"/>
					<path fill="#9EB43C" d="M180.355,17.977c0-1.648-1.723-2.99-3.842-2.99c-2.123,0-3.843,1.342-3.843,2.99
						c0,1.663,1.72,3.005,3.843,3.005C178.635,20.982,180.355,19.64,180.355,17.977z"/>
					<path fill="#CBDB2E" d="M170.266,19.747c0-1.007-1.047-1.815-2.326-1.815c-1.282,0-2.329,0.809-2.329,1.815
						c0,0.992,1.047,1.808,2.329,1.808C169.219,21.554,170.266,20.738,170.266,19.747z"/>
					<path fill="#B3CB36" d="M161.995,24.033c0-2.105-2.19-3.814-4.878-3.814c-2.709,0-4.898,1.708-4.898,3.814
						c0,2.105,2.189,3.813,4.898,3.813C159.805,27.847,161.995,26.138,161.995,24.033z"/>
					<path fill="#9EB43C" d="M156.373,24.636c0-1.731-1.809-3.143-4.027-3.143c-2.22,0-4.019,1.412-4.019,3.143
						s1.799,3.134,4.019,3.134C154.564,27.77,156.373,26.367,156.373,24.636z"/>
					<path fill="#B3CB36" d="M149.814,30.348c0-1.197-1.254-2.173-2.787-2.173c-1.545,0-2.797,0.976-2.797,2.173
						c0,1.205,1.253,2.181,2.797,2.181C148.561,32.529,149.814,31.553,149.814,30.348z"/>
					<ellipse fill="#CBDB2E" cx="143.215" cy="37.67" rx="4.232" ry="3.302"/>
					<path fill="#CBDB2E" d="M157.732,34.086c0-1.953-2.033-3.539-4.547-3.539c-2.502,0-4.534,1.586-4.534,3.539
						c0,1.959,2.032,3.547,4.534,3.547C155.699,37.633,157.732,36.045,157.732,34.086z"/>
					<path fill="#9EB43C" d="M157.087,23.637c0-1.091-1.134-1.968-2.522-1.968c-1.396,0-2.521,0.877-2.521,1.968
						c0,1.083,1.125,1.96,2.521,1.96C155.953,25.597,157.087,24.719,157.087,23.637z"/>
					<path fill="#CBDB2E" d="M170.18,17.588c0-1.991-2.074-3.608-4.625-3.608c-2.553,0-4.635,1.618-4.635,3.608
						c0,1.99,2.082,3.608,4.635,3.608C168.105,21.196,170.18,19.579,170.18,17.588z"/>
					<path fill="#CBDB2E" d="M162.786,19.327c0-0.647-0.665-1.167-1.495-1.167c-0.832,0-1.496,0.518-1.496,1.167
						c0,0.649,0.664,1.175,1.496,1.175C162.121,20.502,162.786,19.975,162.786,19.327z"/>
					<path fill="#CBDB2E" d="M156.324,22.721c0-1.022-1.055-1.845-2.365-1.845s-2.365,0.823-2.365,1.845
						c0,1.021,1.055,1.839,2.365,1.839S156.324,23.743,156.324,22.721z"/>
					<path fill="#9EB43C" d="M153.178,23.637c0-0.595-0.617-1.076-1.369-1.076c-0.754,0-1.369,0.48-1.369,1.076
						c0,0.587,0.615,1.067,1.369,1.067C152.561,24.704,153.178,24.224,153.178,23.637z"/>
					<path fill="#CBDB2E" d="M149.08,32.606c0-1.159-1.204-2.089-2.689-2.089c-1.477,0-2.678,0.93-2.678,2.089
						s1.202,2.09,2.678,2.09C147.877,34.696,149.08,33.765,149.08,32.606z"/>
					<path fill="#9EB43C" d="M150.087,27.671c0-1.624-1.69-2.929-3.764-2.929s-3.755,1.305-3.755,2.929
						c0,1.625,1.683,2.937,3.755,2.937C148.395,30.608,150.087,29.296,150.087,27.671z"/>
					<path fill="#B3CB36" d="M157.791,25.955c0-1.198-1.242-2.167-2.777-2.167s-2.785,0.969-2.785,2.167
						c0,1.205,1.25,2.181,2.785,2.181S157.791,27.16,157.791,25.955z"/>
					<path fill="#B3CB36" d="M158.993,22.935c0-0.824-0.86-1.487-1.906-1.487c-1.056,0-1.915,0.664-1.915,1.487
						c0,0.823,0.859,1.495,1.915,1.495C158.133,24.43,158.993,23.759,158.993,22.935z"/>
					<path fill="#CBDB2E" d="M157.771,18.061c0-1.167-1.213-2.105-2.709-2.105c-1.486,0-2.697,0.939-2.697,2.105
						s1.211,2.113,2.697,2.113C156.559,20.174,157.771,19.228,157.771,18.061z"/>
					<path fill="#B3CB36" d="M168.163,13.294c0-1.167-1.211-2.121-2.707-2.121c-1.498,0-2.719,0.954-2.719,2.121
						c0,1.175,1.222,2.112,2.719,2.112C166.952,15.406,168.163,14.469,168.163,13.294z"/>
					<path fill="#B3CB36" d="M142.12,28.648c0-1.183-1.222-2.144-2.748-2.144c-1.505,0-2.748,0.961-2.748,2.144
						c0,1.182,1.242,2.143,2.748,2.143C140.898,30.791,142.12,29.83,142.12,28.648z"/>
					<path fill="#CBDB2E" d="M139.254,28.869c0-0.671-0.684-1.205-1.533-1.205c-0.852,0-1.545,0.534-1.545,1.205
						c0,0.663,0.693,1.198,1.545,1.198C138.57,30.066,139.254,29.532,139.254,28.869z"/>
					<path fill="#B3CB36" d="M155.814,24.369c0-1.426-1.484-2.585-3.322-2.585c-1.829,0-3.325,1.159-3.325,2.585
						c0,1.434,1.496,2.601,3.325,2.601C154.33,26.97,155.814,25.802,155.814,24.369z"/>
					<ellipse fill="#B3CB36" cx="158.446" cy="18.678" rx="4.282" ry="3.34"/>
					<path fill="#B3CB36" d="M177.1,12.768c0-1.281-1.33-2.311-2.973-2.311c-1.633,0-2.963,1.03-2.963,2.311
						c0,1.274,1.33,2.312,2.963,2.312C175.77,15.079,177.1,14.042,177.1,12.768z"/>
					<path fill="#9EB43C" d="M189.76,19.441c0-1.831-1.906-3.326-4.264-3.326c-2.346,0-4.251,1.495-4.251,3.326
						c0,1.838,1.905,3.326,4.251,3.326C187.854,22.767,189.76,21.279,189.76,19.441z"/>
					<path fill="#B3CB36" d="M171.487,11.341c0-1.045-1.085-1.884-2.415-1.884s-2.415,0.839-2.415,1.884
						c0,1.037,1.086,1.876,2.415,1.876S171.487,12.379,171.487,11.341z"/>
					<path fill="#CBDB2E" d="M189.105,18.015c0-1.899-1.957-3.425-4.381-3.425c-2.414,0-4.379,1.525-4.379,3.425
						c0,1.884,1.965,3.425,4.379,3.425C187.148,21.44,189.105,19.899,189.105,18.015z"/>
					<path fill="#9EB43C" d="M189.036,20.662c0-1.732-1.789-3.128-4.008-3.128c-2.21,0-3.999,1.396-3.999,3.128
						c0,1.723,1.789,3.112,3.999,3.112C187.247,23.774,189.036,22.385,189.036,20.662z"/>
					<path fill="#9EB43C" d="M186.778,21.707c0-1.381-1.429-2.494-3.188-2.494c-1.77,0-3.197,1.113-3.197,2.494
						c0,1.373,1.428,2.494,3.197,2.494C185.35,24.201,186.778,23.08,186.778,21.707z"/>
					<path fill="#9EB43C" d="M185.038,20.708c0-1.724-1.798-3.135-4.019-3.135c-2.229,0-4.027,1.411-4.027,3.135
						c0,1.739,1.798,3.143,4.027,3.143C183.24,23.85,185.038,22.447,185.038,20.708z"/>
					<path fill="#CBDB2E" d="M180.032,19.426c0-1.266-1.31-2.295-2.933-2.295c-1.633,0-2.953,1.029-2.953,2.295
						s1.32,2.288,2.953,2.288C178.723,21.714,180.032,20.692,180.032,19.426z"/>
					<path fill="#CBDB2E" d="M226.049,28.411c0-0.754-0.771-1.356-1.738-1.356c-0.969,0-1.75,0.603-1.75,1.356
						c0,0.756,0.783,1.365,1.75,1.365S226.049,29.167,226.049,28.411z"/>
					<path fill="#CBDB2E" d="M216.421,18.191c0-0.991-1.026-1.792-2.298-1.792s-2.307,0.801-2.307,1.792
						c0,1.007,1.035,1.808,2.307,1.808S216.421,19.198,216.421,18.191z"/>
					<path fill="#B3CB36" d="M217.602,25.284c0-1.892-1.963-3.425-4.397-3.425c-2.426,0-4.399,1.533-4.399,3.425
						c0,1.898,1.975,3.432,4.399,3.432C215.639,28.716,217.602,27.183,217.602,25.284z"/>
					<path fill="#CBDB2E" d="M222.198,29.952c0-1.272-1.341-2.303-2.972-2.303c-1.633,0-2.963,1.03-2.963,2.303
						c0,1.282,1.33,2.319,2.963,2.319C220.857,32.271,222.198,31.233,222.198,29.952z"/>
					<path fill="#B3CB36" d="M227.896,28.899c0-1.609-1.672-2.913-3.743-2.913c-2.063,0-3.734,1.304-3.734,2.913
						c0,1.617,1.671,2.921,3.734,2.921C226.225,31.82,227.896,30.516,227.896,28.899z"/>
					<path fill="#9EB43C" d="M229.911,32.651c0-1.907-1.983-3.454-4.428-3.454s-4.429,1.547-4.429,3.454
						c0,1.915,1.984,3.463,4.429,3.463S229.911,34.566,229.911,32.651z"/>
					<path fill="#B3CB36" d="M220.917,28.754c0-0.999-1.046-1.814-2.327-1.814s-2.316,0.816-2.316,1.814
						c0,1,1.035,1.809,2.316,1.809S220.917,29.754,220.917,28.754z"/>
					<path fill="#CBDB2E" d="M220.126,21.127c0-1.334-1.379-2.41-3.08-2.41c-1.711,0-3.1,1.076-3.1,2.41
						c0,1.335,1.389,2.41,3.1,2.41C218.747,23.537,220.126,22.462,220.126,21.127z"/>
					<path fill="#CBDB2E" d="M207.229,25.695c0-1.998-2.07-3.615-4.623-3.615c-2.551,0-4.625,1.617-4.625,3.615
						c0,1.984,2.074,3.601,4.625,3.601C205.158,29.296,207.229,27.679,207.229,25.695z"/>
					<path fill="#B3CB36" d="M215.061,28.746c0-1.861-1.937-3.371-4.332-3.371c-2.385,0-4.319,1.51-4.319,3.371
						c0,1.869,1.935,3.372,4.319,3.372C213.125,32.118,215.061,30.615,215.061,28.746z"/>
					<path fill="#9EB43C" d="M216.146,36.649c0-1.861-1.937-3.371-4.332-3.371c-2.385,0-4.32,1.51-4.32,3.371
						c0,1.876,1.936,3.386,4.32,3.386C214.21,40.035,216.146,38.524,216.146,36.649z"/>
					<path fill="#9EB43C" d="M227.135,26.062c0-1.708-1.771-3.097-3.959-3.097c-2.201,0-3.979,1.389-3.979,3.097
						s1.777,3.096,3.979,3.096C225.365,29.158,227.135,27.77,227.135,26.062z"/>
					<ellipse fill="#B3CB36" cx="235.094" cy="37.137" rx="3.969" ry="3.097"/>
					<path fill="#9EB43C" d="M214.318,25.612c0-1.747-1.819-3.165-4.049-3.165c-2.237,0-4.057,1.418-4.057,3.165
						s1.819,3.157,4.057,3.157C212.499,28.769,214.318,27.359,214.318,25.612z"/>
					<path fill="#9EB43C" d="M213.342,19.564c0-0.992-1.018-1.785-2.277-1.785c-1.262,0-2.28,0.793-2.28,1.785
						c0,0.976,1.019,1.77,2.28,1.77C212.324,21.334,213.342,20.54,213.342,19.564z"/>
					<path fill="#B3CB36" d="M209.596,19.517c0-1.586-1.643-2.867-3.666-2.867c-2.033,0-3.676,1.281-3.676,2.867
						c0,1.58,1.643,2.861,3.676,2.861C207.953,22.379,209.596,21.097,209.596,19.517z"/>
					<path fill="#9EB43C" d="M199.497,21.669c0-1.068-1.104-1.922-2.463-1.922c-1.36,0-2.464,0.854-2.464,1.922
						s1.104,1.922,2.464,1.922C198.393,23.591,199.497,22.737,199.497,21.669z"/>
					<path fill="#CBDB2E" d="M201.092,22.599c0-1.098-1.144-1.983-2.543-1.983c-1.408,0-2.541,0.885-2.541,1.983
						c0,1.091,1.133,1.983,2.541,1.983C199.948,24.582,201.092,23.69,201.092,22.599z"/>
					<path fill="#B3CB36" d="M215.492,24.811c0-2.044-2.123-3.699-4.742-3.699c-2.609,0-4.742,1.655-4.742,3.699
						c0,2.052,2.133,3.699,4.742,3.699C213.369,28.51,215.492,26.863,215.492,24.811z"/>
					<path fill="#B3CB36" d="M219.079,24.43c0-1.846-1.917-3.341-4.292-3.341c-2.366,0-4.292,1.495-4.292,3.341
						c0,1.853,1.927,3.348,4.292,3.348C217.162,27.778,219.079,26.283,219.079,24.43z"/>
					<path fill="#B3CB36" d="M208.979,19.961c0-1.846-1.924-3.341-4.291-3.341c-2.365,0-4.291,1.495-4.291,3.341
						s1.925,3.34,4.291,3.34C207.055,23.301,208.979,21.806,208.979,19.961z"/>
					<path fill="#B3CB36" d="M203.985,24.613c0-1.93-2.005-3.494-4.478-3.494c-2.474,0-4.479,1.564-4.479,3.494
						c0,1.922,2.004,3.486,4.479,3.486C201.98,28.099,203.985,26.535,203.985,24.613z"/>
					<path fill="#B3CB36" d="M197.258,14.217c0-1.564-1.623-2.83-3.627-2.83c-2.012,0-3.636,1.266-3.636,2.83
						c0,1.571,1.624,2.837,3.636,2.837C195.635,17.055,197.258,15.788,197.258,14.217z"/>
					<path fill="#B3CB36" d="M192.995,16.483c0-1.389-1.446-2.517-3.226-2.517c-1.78,0-3.228,1.128-3.228,2.517
						c0,1.388,1.447,2.517,3.228,2.517C191.549,18.999,192.995,17.871,192.995,16.483z"/>
					<path fill="#B3CB36" d="M195.732,21.196c0-2.075-2.159-3.768-4.819-3.768c-2.669,0-4.829,1.693-4.829,3.768
						c0,2.082,2.16,3.768,4.829,3.768C193.573,24.964,195.732,23.278,195.732,21.196z"/>
					<path fill="#9EB43C" d="M203.426,32.644c0-1.959-2.033-3.546-4.535-3.546s-4.545,1.587-4.545,3.546
						c0,1.961,2.043,3.547,4.545,3.547S203.426,34.605,203.426,32.644z"/>
					<path fill="#CBDB2E" d="M215.053,33.659c0-1.358-1.399-2.456-3.149-2.456c-1.74,0-3.158,1.098-3.158,2.456
						c0,1.358,1.417,2.463,3.158,2.463C213.653,36.122,215.053,35.017,215.053,33.659z"/>
					<path fill="#9EB43C" d="M208.424,31.187c0-1.067-1.115-1.937-2.474-1.937c-1.36,0-2.474,0.87-2.474,1.937
						c0,1.053,1.113,1.922,2.474,1.922C207.309,33.109,208.424,32.24,208.424,31.187z"/>
					<path fill="#9EB43C" d="M196.105,32.194c0-1.968-2.043-3.554-4.557-3.554c-2.513,0-4.547,1.586-4.547,3.554
						c0,1.96,2.034,3.546,4.547,3.546C194.061,35.74,196.105,34.154,196.105,32.194z"/>
					<path fill="#B3CB36" d="M189.057,22.042c0-1.776-1.849-3.226-4.137-3.226c-2.277,0-4.125,1.45-4.125,3.226
						c0,1.778,1.848,3.211,4.125,3.211C187.208,25.253,189.057,23.82,189.057,22.042z"/>
					<path fill="#9EB43C" d="M180.932,23.667c0-1.174-1.231-2.121-2.737-2.121c-1.496,0-2.728,0.946-2.728,2.121
						c0,1.183,1.231,2.135,2.728,2.135C179.699,25.802,180.932,24.85,180.932,23.667z"/>
					<path fill="#B3CB36" d="M188.637,30.791c0-1.998-2.082-3.608-4.635-3.608c-2.561,0-4.634,1.61-4.634,3.608
						c0,1.999,2.073,3.616,4.634,3.616C186.555,34.406,188.637,32.789,188.637,30.791z"/>
					<path fill="#B3CB36" d="M189.544,31.859c0-1.602-1.67-2.906-3.733-2.906s-3.727,1.304-3.727,2.906
						c0,1.617,1.663,2.913,3.727,2.913S189.544,33.476,189.544,31.859z"/>
					<path fill="#9EB43C" d="M198.441,29.372c0-0.915-0.949-1.655-2.122-1.655s-2.121,0.74-2.121,1.655
						c0,0.908,0.948,1.648,2.121,1.648C197.493,31.02,198.441,30.28,198.441,29.372z"/>
					<path fill="#B3CB36" d="M205.432,38.662c0-1.799-1.867-3.249-4.164-3.249c-2.309,0-4.176,1.45-4.176,3.249
						c0,1.799,1.867,3.256,4.176,3.256C203.564,41.919,205.432,40.462,205.432,38.662z"/>
					<path fill="#CBDB2E" d="M196.838,37.007c0-0.976-1.018-1.762-2.258-1.762c-1.251,0-2.259,0.786-2.259,1.762
						c0,0.977,1.008,1.761,2.259,1.761C195.82,38.768,196.838,37.984,196.838,37.007z"/>
					<path fill="#9EB43C" d="M186.143,29.144c0-1.907-1.975-3.44-4.408-3.44c-2.444,0-4.42,1.533-4.42,3.44
						c0,1.906,1.976,3.446,4.42,3.446C184.168,32.59,186.143,31.05,186.143,29.144z"/>
					<path fill="#9EB43C" d="M184.323,24.506c0-0.702-0.733-1.267-1.631-1.267c-0.89,0-1.624,0.565-1.624,1.267
						c0,0.701,0.732,1.273,1.624,1.273C183.59,25.78,184.323,25.208,184.323,24.506z"/>
					<path fill="#CBDB2E" d="M182.125,24.621c0-1.442-1.508-2.617-3.355-2.617s-3.353,1.175-3.353,2.617
						c0,1.441,1.505,2.616,3.353,2.616C180.618,27.237,182.125,26.062,182.125,24.621z"/>
					<path fill="#CBDB2E" d="M177.188,31.859c0-1.442-1.506-2.609-3.354-2.609s-3.345,1.167-3.345,2.609
						c0,1.45,1.497,2.616,3.345,2.616S177.188,33.309,177.188,31.859z"/>
					<path fill="#9EB43C" d="M169.658,20.189c0-1.541-1.592-2.776-3.559-2.776c-1.965,0-3.566,1.236-3.566,2.776
						c0,1.541,1.604,2.776,3.566,2.776C168.066,22.965,169.658,21.73,169.658,20.189z"/>
					<path fill="#B3CB36" d="M167.764,18.923c0-0.839-0.871-1.51-1.946-1.51c-1.065,0-1.935,0.671-1.935,1.51
						s0.868,1.517,1.935,1.517C166.893,20.44,167.764,19.762,167.764,18.923z"/>
					<path fill="#9EB43C" d="M176.873,25.955c0-1.136-1.181-2.059-2.639-2.059c-1.467,0-2.648,0.923-2.648,2.059
						c0,1.145,1.184,2.075,2.648,2.075C175.692,28.03,176.873,27.1,176.873,25.955z"/>
					<path fill="#CBDB2E" d="M180.911,33.117c0-1.418-1.476-2.57-3.284-2.57c-1.818,0-3.296,1.151-3.296,2.57
						c0,1.411,1.478,2.571,3.296,2.571C179.436,35.688,180.911,34.528,180.911,33.117z"/>
					<path fill="#9EB43C" d="M192.018,35.901c0-1.418-1.476-2.57-3.285-2.57c-1.818,0-3.295,1.152-3.295,2.57
						s1.477,2.563,3.295,2.563C190.542,38.463,192.018,37.319,192.018,35.901z"/>
					<path fill="#CBDB2E" d="M203.251,40.432c0-1.64-1.7-2.967-3.793-2.967c-2.091,0-3.792,1.327-3.792,2.967
						c0,1.632,1.701,2.959,3.792,2.959C201.551,43.391,203.251,42.064,203.251,40.432z"/>
					<path fill="#CBDB2E" d="M188.039,40.996c0-0.717-0.752-1.304-1.673-1.304c-0.927,0-1.681,0.587-1.681,1.304
						c0,0.732,0.754,1.313,1.681,1.313C187.287,42.308,188.039,41.728,188.039,40.996z"/>
					<path fill="#9EB43C" d="M184.773,34.437c0-0.61-0.635-1.098-1.407-1.098s-1.407,0.488-1.407,1.098
						c0,0.61,0.635,1.098,1.407,1.098S184.773,35.046,184.773,34.437z"/>
					<path fill="#9EB43C" d="M184.461,33.27c0-1.716-1.779-3.104-3.97-3.104c-2.2,0-3.979,1.388-3.979,3.104
						c0,1.708,1.778,3.097,3.979,3.097C182.682,36.367,184.461,34.978,184.461,33.27z"/>
					<path fill="#9EB43C" d="M171.359,26.298c0-1.274-1.318-2.311-2.961-2.311c-1.633,0-2.952,1.037-2.952,2.311
						c0,1.281,1.319,2.312,2.952,2.312C170.041,28.61,171.359,27.58,171.359,26.298z"/>
					<path fill="#CBDB2E" d="M162.327,26.413c0-1.297-1.349-2.349-3.003-2.349c-1.661,0-3,1.052-3,2.349c0,1.297,1.34,2.35,3,2.35
						C160.979,28.762,162.327,27.71,162.327,26.413z"/>
					<path fill="#9EB43C" d="M169.581,25.429c0-1.625-1.69-2.945-3.774-2.945c-2.082,0-3.764,1.32-3.764,2.945
						s1.682,2.943,3.764,2.943C167.891,28.373,169.581,27.054,169.581,25.429z"/>
					<path fill="#9EB43C" d="M171.359,27.374c0-2.121-2.198-3.829-4.907-3.829c-2.718,0-4.918,1.708-4.918,3.829
						c0,2.112,2.2,3.829,4.918,3.829C169.161,31.203,171.359,29.486,171.359,27.374z"/>
					<path fill="#B3CB36" d="M171.381,32.209c0-1.22-1.271-2.211-2.826-2.211s-2.814,0.992-2.814,2.211
						c0,1.213,1.261,2.197,2.814,2.197C170.109,34.406,171.381,33.422,171.381,32.209z"/>
					<path fill="#9EB43C" d="M165.396,38.067c0-1.22-1.271-2.204-2.824-2.204c-1.555,0-2.814,0.984-2.814,2.204
						c0,1.221,1.26,2.197,2.814,2.197C164.126,40.264,165.396,39.288,165.396,38.067z"/>
					<path fill="#CBDB2E" d="M173.501,36.344c0-1.167-1.221-2.128-2.718-2.128c-1.506,0-2.738,0.96-2.738,2.128
						c0,1.182,1.232,2.135,2.738,2.135C172.28,38.479,173.501,37.526,173.501,36.344z"/>
					<path fill="#9EB43C" d="M181.204,36.297c0-1.83-1.905-3.317-4.251-3.317c-2.357,0-4.273,1.487-4.273,3.317
						c0,1.838,1.916,3.325,4.273,3.325C179.299,39.623,181.204,38.135,181.204,36.297z"/>
					<path fill="#9EB43C" d="M183.415,38.731c0-1.243-1.3-2.266-2.903-2.266s-2.904,1.022-2.904,2.266
						c0,1.259,1.301,2.265,2.904,2.265S183.415,39.989,183.415,38.731z"/>
					<path fill="#CBDB2E" d="M186.309,44.795c0-0.916-0.959-1.663-2.131-1.663c-1.183,0-2.142,0.747-2.142,1.663
						c0,0.923,0.959,1.669,2.142,1.669C185.35,46.464,186.309,45.717,186.309,44.795z"/>
					<path fill="#B3CB36" d="M187.668,46.518c0-0.647-0.684-1.182-1.525-1.182s-1.516,0.534-1.516,1.182
						c0,0.656,0.674,1.19,1.516,1.19S187.668,47.174,187.668,46.518z"/>
					<path fill="#9EB43C" d="M191.871,48.021c0-1.571-1.632-2.845-3.646-2.845c-2.004,0-3.637,1.273-3.637,2.845
						c0,1.579,1.633,2.845,3.637,2.845C190.239,50.866,191.871,49.599,191.871,48.021z"/>
					<path fill="#B3CB36" d="M190.729,39.898c0-1.526-1.604-2.776-3.58-2.776c-1.963,0-3.559,1.25-3.559,2.776
						c0,1.548,1.594,2.791,3.559,2.791C189.124,42.689,190.729,41.446,190.729,39.898z"/>
					<path fill="#CBDB2E" d="M184.139,37.419c0-1.09-1.136-1.976-2.533-1.976s-2.521,0.885-2.521,1.976
						c0,1.091,1.124,1.968,2.521,1.968C183.003,39.387,184.139,38.509,184.139,37.419z"/>
					<path fill="#CBDB2E" d="M177.666,32.103c0-0.779-0.793-1.388-1.779-1.388c-0.977,0-1.77,0.609-1.77,1.388
						c0,0.763,0.793,1.388,1.77,1.388C176.873,33.491,177.666,32.866,177.666,32.103z"/>
					<path fill="#9EB43C" d="M166.219,26.23c0-1.846-1.928-3.356-4.303-3.356s-4.301,1.51-4.301,3.356
						c0,1.861,1.925,3.355,4.301,3.355S166.219,28.091,166.219,26.23z"/>
					<path fill="#B3CB36" d="M167.029,20.792c0-1.434-1.485-2.601-3.323-2.601c-1.839,0-3.323,1.167-3.323,2.601
						c0,1.426,1.484,2.594,3.323,2.594C165.544,23.385,167.029,22.218,167.029,20.792z"/>
					<path fill="#9EB43C" d="M157.723,26.124c0-1.297-1.359-2.35-3.012-2.35c-1.662,0-3.01,1.053-3.01,2.35
						c0,1.295,1.348,2.349,3.01,2.349C156.363,28.472,157.723,27.419,157.723,26.124z"/>
					<path fill="#B3CB36" d="M169.387,34.131c0-1.625-1.691-2.944-3.775-2.944c-2.092,0-3.771,1.32-3.771,2.944
						c0,1.632,1.68,2.944,3.771,2.944C167.695,37.076,169.387,35.763,169.387,34.131z"/>
					<path fill="#B3CB36" d="M178.126,41.271c0-1.114-1.165-2.029-2.601-2.029c-1.438,0-2.602,0.915-2.602,2.029
						c0,1.129,1.164,2.036,2.602,2.036C176.961,43.307,178.126,42.399,178.126,41.271z"/>
					<path fill="#CBDB2E" d="M168.154,33.628c0-0.862-0.909-1.579-2.033-1.579c-1.115,0-2.014,0.716-2.014,1.579
						c0,0.885,0.898,1.586,2.014,1.586C167.244,35.214,168.154,34.513,168.154,33.628z"/>
					<path fill="#B3CB36" d="M173.736,44.55c0-0.869-0.91-1.586-2.034-1.586c-1.115,0-2.022,0.718-2.022,1.586
						c0,0.87,0.907,1.587,2.022,1.587C172.826,46.137,173.736,45.42,173.736,44.55z"/>
					<path fill="#B3CB36" d="M170.237,25.558c0-2.036-2.122-3.683-4.731-3.683c-2.611,0-4.732,1.647-4.732,3.683
						c0,2.044,2.121,3.7,4.732,3.7C168.115,29.258,170.237,27.603,170.237,25.558z"/>
					<path fill="#9EB43C" d="M142.852,32.179c0-2.044-2.11-3.691-4.721-3.691c-2.621,0-4.742,1.647-4.742,3.691
						c0,2.037,2.121,3.692,4.742,3.692C140.741,35.871,142.852,34.216,142.852,32.179z"/>
					<path fill="#9EB43C" d="M161.828,27.939c0-1.388-1.445-2.518-3.216-2.518c-1.779,0-3.218,1.13-3.218,2.518
						c0,1.388,1.438,2.501,3.218,2.501C160.383,30.44,161.828,29.326,161.828,27.939z"/>
					<path fill="#CBDB2E" d="M156.852,25.513c0-1.464-1.515-2.654-3.392-2.654c-1.866,0-3.382,1.19-3.382,2.654
						c0,1.457,1.516,2.639,3.382,2.639C155.337,28.152,156.852,26.97,156.852,25.513z"/>
					<path fill="#B3CB36" d="M152.11,24.064c0-0.671-0.703-1.22-1.572-1.22c-0.871,0-1.575,0.549-1.575,1.22
						c0,0.687,0.705,1.236,1.575,1.236C151.407,25.299,152.11,24.751,152.11,24.064z"/>
					<path fill="#9EB43C" d="M163.188,34.33c0-1.64-1.701-2.975-3.803-2.975c-2.103,0-3.813,1.335-3.813,2.975
						c0,1.639,1.711,2.975,3.813,2.975C161.486,37.305,163.188,35.969,163.188,34.33z"/>
					<path fill="#B3CB36" d="M164.801,44.184c0-1.228-1.262-2.212-2.836-2.212c-1.563,0-2.835,0.984-2.835,2.212
						c0,1.22,1.271,2.212,2.835,2.212C163.539,46.396,164.801,45.404,164.801,44.184z"/>
					<path fill="#CBDB2E" d="M172.135,40.012c0-1.098-1.146-1.991-2.563-1.991c-1.408,0-2.552,0.893-2.552,1.991
						c0,1.098,1.144,1.991,2.552,1.991C170.989,42.003,172.135,41.11,172.135,40.012z"/>
					<path fill="#B3CB36" d="M163.756,31.279c0-1.708-1.771-3.082-3.951-3.082c-2.17,0-3.94,1.374-3.94,3.082
						c0,1.693,1.771,3.074,3.94,3.074C161.985,34.353,163.756,32.972,163.756,31.279z"/>
					<path fill="#B3CB36" d="M167.538,41.942c0-1.694-1.76-3.082-3.938-3.082c-2.172,0-3.94,1.388-3.94,3.082
						c0,1.693,1.769,3.074,3.94,3.074C165.778,45.016,167.538,43.635,167.538,41.942z"/>
					<path fill="#B3CB36" d="M145.571,29.006c0-1.144-1.185-2.066-2.64-2.066c-1.467,0-2.65,0.922-2.65,2.066
						s1.184,2.059,2.65,2.059C144.389,31.065,145.571,30.15,145.571,29.006z"/>
					<path fill="#CBDB2E" d="M152.053,33.369c0-1.739-1.81-3.142-4.029-3.142c-2.209,0-4.018,1.403-4.018,3.142
						c0,1.732,1.809,3.127,4.018,3.127C150.244,36.496,152.053,35.101,152.053,33.369z"/>
					<path fill="#9EB43C" d="M159.717,34.04c0-1.875-1.945-3.394-4.341-3.394c-2.394,0-4.34,1.518-4.34,3.394
						c0,1.861,1.946,3.379,4.34,3.379C157.771,37.419,159.717,35.901,159.717,34.04z"/>
					<path fill="#B3CB36" d="M164.331,43.192c0-2.12-2.2-3.829-4.907-3.829c-2.699,0-4.898,1.708-4.898,3.829
						c0,2.105,2.199,3.821,4.898,3.821C162.133,47.013,164.331,45.298,164.331,43.192z"/>
					<path fill="#9EB43C" d="M157.811,39.425c0-1.114-1.153-2.014-2.582-2.014c-1.416,0-2.57,0.9-2.57,2.014
						c0,1.113,1.154,2.005,2.57,2.005C156.657,41.43,157.811,40.539,157.811,39.425z"/>
					<path fill="#B3CB36" d="M159.032,35.733c0-1.999-2.082-3.607-4.632-3.607c-2.553,0-4.625,1.609-4.625,3.607
						s2.074,3.615,4.625,3.615C156.95,39.348,159.032,37.732,159.032,35.733z"/>
					<path fill="#B3CB36" d="M180.53,13.386c0-1.999-2.082-3.608-4.634-3.608c-2.551,0-4.625,1.609-4.625,3.608
						c0,1.99,2.074,3.6,4.625,3.6C178.448,16.985,180.53,15.376,180.53,13.386z"/>
					<path fill="#B3CB36" d="M144.721,33.27c0-1.105-1.153-1.991-2.562-1.991s-2.563,0.885-2.563,1.991s1.155,1.999,2.563,1.999
						C143.566,35.268,144.721,34.376,144.721,33.27z"/>
					<path fill="#B3CB36" d="M134.016,33.048c0-0.762-0.804-1.396-1.789-1.396c-0.998,0-1.789,0.633-1.789,1.396
						c0,0.771,0.791,1.404,1.789,1.404C133.212,34.452,134.016,33.819,134.016,33.048z"/>
					<path fill="#B3CB36" d="M151.329,38.098c0-1.771-1.838-3.204-4.116-3.204c-2.268,0-4.117,1.434-4.117,3.204
						c0,1.776,1.85,3.218,4.117,3.218C149.491,41.316,151.329,39.875,151.329,38.098z"/>
					<path fill="#9EB43C" d="M148.121,45.466c0-1.244-1.29-2.258-2.893-2.258c-1.604,0-2.904,1.014-2.904,2.258
						c0,1.25,1.301,2.272,2.904,2.272S148.121,46.716,148.121,45.466z"/>
					<path fill="#CBDB2E" d="M155.318,44.55c0-1.35-1.408-2.441-3.129-2.441c-1.73,0-3.129,1.091-3.129,2.441
						c0,1.343,1.397,2.441,3.129,2.441C153.91,46.991,155.318,45.893,155.318,44.55z"/>
					<path fill="#CBDB2E" d="M142.491,39.799c0-1.122-1.173-2.037-2.611-2.037c-1.437,0-2.608,0.915-2.608,2.037
						c0,1.121,1.173,2.036,2.608,2.036C141.318,41.835,142.491,40.92,142.491,39.799z"/>
					<path fill="#9EB43C" d="M138.619,29.067c0-0.61-0.635-1.098-1.408-1.098c-0.781,0-1.426,0.488-1.426,1.098
						s0.645,1.113,1.426,1.113C137.982,30.18,138.619,29.677,138.619,29.067z"/>
					<path fill="#CBDB2E" d="M209.527,37.907c0-0.87-0.898-1.571-2.004-1.571c-1.114,0-2.023,0.701-2.023,1.571
						c0,0.87,0.909,1.564,2.023,1.564C208.629,39.471,209.527,38.777,209.527,37.907z"/>
					<path fill="#B3CB36" d="M210.27,34.376c0-1.861-1.926-3.364-4.301-3.364c-2.377,0-4.312,1.502-4.312,3.364
						c0,1.854,1.935,3.356,4.312,3.356C208.344,37.732,210.27,36.229,210.27,34.376z"/>
					<path fill="#9EB43C" d="M207.581,29.113c0-0.899-0.938-1.625-2.091-1.625c-1.145,0-2.072,0.725-2.072,1.625
						c0,0.9,0.928,1.625,2.072,1.625C206.643,30.737,207.581,30.013,207.581,29.113z"/>
					<path fill="#B3CB36" d="M200.014,19.517c0-0.899-0.937-1.631-2.082-1.631c-1.143,0-2.082,0.732-2.082,1.631
						c0,0.893,0.939,1.618,2.082,1.618C199.077,21.135,200.014,20.41,200.014,19.517z"/>
					<path fill="#CBDB2E" d="M208.197,31.569c0-1.419-1.475-2.578-3.294-2.578c-1.828,0-3.313,1.159-3.313,2.578
						c0,1.434,1.486,2.585,3.313,2.585C206.723,34.154,208.197,33.003,208.197,31.569z"/>
					<path fill="#CBDB2E" d="M194.335,35.123c0-1.113-1.153-2.014-2.581-2.014c-1.417,0-2.58,0.9-2.58,2.014
						c0,1.114,1.163,2.014,2.58,2.014C193.182,37.137,194.335,36.236,194.335,35.123z"/>
					<path fill="#9EB43C" d="M197.592,41.766c0-1.99-2.074-3.622-4.636-3.622c-2.56,0-4.642,1.632-4.642,3.622
						c0,1.999,2.082,3.624,4.642,3.624C195.518,45.39,197.592,43.764,197.592,41.766z"/>
					<path fill="#9EB43C" d="M196.741,35.443c0-1.792-1.868-3.257-4.187-3.257c-2.295,0-4.174,1.465-4.174,3.257
						c0,1.8,1.877,3.265,4.174,3.265C194.872,38.708,196.741,37.243,196.741,35.443z"/>
					<path fill="#B3CB36" d="M196.545,24.895c0-0.801-0.832-1.457-1.867-1.457c-1.026,0-1.857,0.656-1.857,1.457
						c0,0.801,0.831,1.45,1.857,1.45C195.715,26.344,196.545,25.695,196.545,24.895z"/>
					<path fill="#B3CB36" d="M193.416,24.46c0-1.083-1.135-1.96-2.521-1.96c-1.398,0-2.523,0.877-2.523,1.96
						c0,1.091,1.125,1.968,2.523,1.968C192.282,26.428,193.416,25.551,193.416,24.46z"/>
					<path fill="#CBDB2E" d="M189.485,34.055c0-1.404-1.446-2.525-3.235-2.525s-3.236,1.121-3.236,2.525
						c0,1.388,1.447,2.517,3.236,2.517S189.485,35.443,189.485,34.055z"/>
					<path fill="#9EB43C" d="M184.764,36.367c0-0.672-0.692-1.213-1.545-1.213c-0.858,0-1.563,0.542-1.563,1.213
						c0,0.67,0.705,1.212,1.563,1.212C184.07,37.579,184.764,37.037,184.764,36.367z"/>
					<path fill="#B3CB36" d="M184.854,47.197c0-0.924-0.969-1.678-2.151-1.678c-1.185,0-2.151,0.754-2.151,1.678
						c0,0.923,0.967,1.677,2.151,1.677C183.885,48.875,184.854,48.12,184.854,47.197z"/>
					<path fill="#CBDB2E" d="M185.564,45.267c0-1.052-1.094-1.907-2.443-1.907c-1.339,0-2.434,0.854-2.434,1.907
						c0,1.045,1.095,1.899,2.434,1.899C184.471,47.167,185.564,46.312,185.564,45.267z"/>
					<path fill="#9EB43C" d="M192.977,35.489c0-0.785-0.821-1.419-1.83-1.419c-1.006,0-1.838,0.634-1.838,1.419
						c0,0.794,0.832,1.434,1.838,1.434C192.155,36.923,192.977,36.283,192.977,35.489z"/>
					<path fill="#9EB43C" d="M194.021,33.476c0-0.786-0.821-1.426-1.827-1.426c-1.007,0-1.829,0.641-1.829,1.426
						c0,0.793,0.822,1.426,1.829,1.426C193.2,34.902,194.021,34.269,194.021,33.476z"/>
					<path fill="#B3CB36" d="M199.801,34.07c0-1.067-1.105-1.921-2.465-1.921s-2.463,0.854-2.463,1.921
						c0,1.068,1.104,1.923,2.463,1.923S199.801,35.138,199.801,34.07z"/>
					<path fill="#B3CB36" d="M200.563,22.706c0-1.236-1.28-2.227-2.854-2.227c-1.575,0-2.856,0.991-2.856,2.227
						c0,1.236,1.281,2.227,2.856,2.227C199.282,24.933,200.563,23.942,200.563,22.706z"/>
					<path fill="#B3CB36" d="M205.822,32.164c0-1.877-1.945-3.402-4.352-3.402c-2.403,0-4.358,1.525-4.358,3.402
						c0,1.875,1.955,3.393,4.358,3.393C203.877,35.557,205.822,34.04,205.822,32.164z"/>
					<path fill="#B3CB36" d="M174.674,41.133c0-1.876-1.953-3.402-4.359-3.402c-2.405,0-4.352,1.526-4.352,3.402
						s1.945,3.394,4.352,3.394S174.674,43.01,174.674,41.133z"/>
					<path fill="#4D7236" d="M395.925,210.273h17.607c17.158-10.123,43.056-41.996,43.056-75.355
						c0-40.426-23.483-59.478-52.452-59.478c-28.958,0-52.44,19.052-52.44,59.478C351.695,168.279,379.843,200.152,395.925,210.273z
						"/>
					<path fill="#B3CB36" d="M212.607,40.904c0-1.875-1.955-3.401-4.352-3.401c-2.404,0-4.359,1.526-4.359,3.401
						c0,1.876,1.955,3.402,4.359,3.402C210.652,44.306,212.607,42.781,212.607,40.904z"/>
					<path fill="#CBDB2E" d="M213.977,46.869c0-1.876-1.946-3.401-4.352-3.401c-2.404,0-4.359,1.525-4.359,3.401
						c0,1.876,1.955,3.402,4.359,3.402C212.03,50.271,213.977,48.745,213.977,46.869z"/>
					<path fill="#B3CB36" d="M183.053,41.652c0-1.877-1.955-3.402-4.359-3.402c-2.406,0-4.362,1.525-4.362,3.402
						c0,1.875,1.956,3.393,4.362,3.393C181.098,45.045,183.053,43.528,183.053,41.652z"/>
					<path fill="#CBDB2E" d="M194.785,44.291c0-1.678-1.73-3.028-3.872-3.028s-3.871,1.35-3.871,3.028
						c0,1.663,1.729,3.013,3.871,3.013S194.785,45.954,194.785,44.291z"/>
					<path fill="#B3CB36" d="M195.869,47.357c0-1.739-1.799-3.135-4.027-3.135c-2.219,0-4.018,1.396-4.018,3.135
						s1.798,3.135,4.018,3.135C194.071,50.492,195.869,49.096,195.869,47.357z"/>
					<path fill="#9EB43C" d="M191.95,43.696c0-0.748-0.772-1.357-1.722-1.357c-0.959,0-1.74,0.61-1.74,1.357
						c0,0.74,0.783,1.342,1.74,1.342C191.178,45.038,191.95,44.436,191.95,43.696z"/>
					<path fill="#B3CB36" d="M158.406,28.519c0-1.832-1.896-3.311-4.243-3.311c-2.336,0-4.243,1.479-4.243,3.311
						c0,1.83,1.907,3.31,4.243,3.31C156.51,31.828,158.406,30.348,158.406,28.519z"/>
					<path fill="#9EB43C" d="M191.842,45.496c0-1.533-1.582-2.76-3.539-2.76c-1.945,0-3.529,1.228-3.529,2.76
						c0,1.518,1.584,2.753,3.529,2.753C190.26,48.249,191.842,47.013,191.842,45.496z"/>
					<path fill="#B3CB36" d="M216.693,47.197c0-1.526-1.574-2.761-3.53-2.761c-1.954,0-3.538,1.235-3.538,2.761
						c0,1.525,1.584,2.753,3.538,2.753C215.119,49.95,216.693,48.723,216.693,47.197z"/>
					<path fill="#9EB43C" d="M184.225,37.487c0-0.702-0.732-1.266-1.631-1.266c-0.9,0-1.635,0.563-1.635,1.266
						c0,0.709,0.734,1.281,1.635,1.281C183.493,38.768,184.225,38.197,184.225,37.487z"/>
					<path fill="#CBDB2E" d="M172.758,41.293c0-0.702-0.731-1.273-1.633-1.273c-0.898,0-1.632,0.572-1.632,1.273
						c0,0.71,0.733,1.274,1.632,1.274C172.026,42.567,172.758,42.003,172.758,41.293z"/>
					<path fill="#B3CB36" d="M172.758,43.628c0-0.702-0.731-1.273-1.633-1.273c-0.898,0-1.632,0.571-1.632,1.273
						c0,0.709,0.733,1.274,1.632,1.274C172.026,44.901,172.758,44.337,172.758,43.628z"/>
				</g>
			</g>
		</g>
		
			<animateTransform  fill="remove" restart="always" calcMode="linear" additive="replace" accumulate="none" xmlns="http://www.w3.org/2000/svg" repeatCount="1" dur="10s" from="-1000 -100" begin="0s" to="0 0" type="translate" attributeName="transform">
			</animateTransform>
	</g>
	<path opacity="0.5" fill="#AAB3B8" enable-background="new    " d="M206.635,136.076c1.065-14.789-35.137-28.402-80.842-30.387
		c-45.705-2-83.618,8.381-84.675,23.172c-1.055,14.781,35.137,28.389,80.831,30.387
		C167.664,161.232,205.577,150.857,206.635,136.076z"/>
	<g>
		<path fill="#4D7236" d="M134.924,139.313c31.188,0.113,51.924-4.807,59.959-24.592c8.026-19.771-1.945-33.592-30.875-47.03
			c-5.885-2.737-45.597-27.305-67.407-32.698C56.117,24.978,14.126,39.425,2.825,67.248c-11.302,27.824,12.367,58.492,52.861,68.508
			C77.488,141.141,128.071,139.289,134.924,139.313z"/>
		<path fill="#B3CB36" d="M137.162,137.342c30.189,0.352,50.203-4.104,57.721-22.623c7.508-18.504-2.328-31.561-30.494-44.42
			c-5.738-2.609-44.5-25.994-65.678-31.226C59.39,29.348,18.927,42.574,8.348,68.621C-2.22,94.66,21.086,123.645,60.407,133.367
			C81.594,138.609,130.534,137.258,137.162,137.342z"/>
		<path fill="#CBDB2E" d="M139.225,135.758c29.231,0.518,48.56-3.57,55.658-21.037c7.088-17.451-2.572-29.861-29.984-42.194
			c-5.573-2.509-43.348-24.864-63.908-29.943c-38.177-9.444-77.205,2.821-87.186,27.381C3.833,94.523,26.69,122.09,64.876,131.525
			C85.426,136.611,132.803,135.643,139.225,135.758z"/>
		<path fill="#FDE35E" d="M140.809,134.535c28.5,0.648,47.31-3.156,54.074-19.814c6.754-16.643-2.769-28.557-29.582-40.486
			c-5.467-2.425-42.471-23.987-62.55-28.945c-37.297-9.222-75.24,2.288-84.752,25.711c-9.512,23.415,13.003,49.882,50.3,59.097
			C88.388,135.063,134.542,134.385,140.809,134.535z"/>
		<path fill="#EAE556" d="M108.635,81.023c-0.733-0.139-1.438-0.381-2.004-0.764c-8.849-5.917-14.646-9.876-27.121-9.732
			c-3.841,0.046-9.287,0.329-14.302,1.389c-1.925,1.267-3.539,2.959-4.654,5.202c-3.881,7.84-1.817,15.833,7.137,20.938
			c1.69,0.969,3.52,1.822,5.435,2.586c0.587-0.199,1.223-0.33,1.928-0.252c12.083,1.271,24.254-0.74,36.338-1.168
			c0.401-0.262,0.821-0.488,1.202-0.764c-4.995-2.555-2.63-9.609,3.893-8.223h0.029C113.963,87.225,111.44,83.961,108.635,81.023z"
			/>
		<path fill="#EAE556" d="M138.659,98.275c3.783,1.764,7.879,3.434,12.2,4.959c6.756,1.936,13.795,3.568,21.4,4.973
			c4.42,0.807,8.791,1.654,12.975,2.744c3.598,0.352,7.175,0.467,10.732,0.467c3.551-13.463-6.178-23.652-30.091-34.025
			c-5.26-2.281-41.012-22.409-60.292-27.168c-35.791-8.847-71.817,1.244-80.459,22.539c-8.653,21.287,13.355,45.724,49.146,54.574
			c19.279,4.766,63.351,4.666,69.334,4.873c21.498,0.725,37.141-1.184,45.813-9.451c-15.613-4.484-31.188-8.139-46.419-12.797
			c-4.81-0.803-9.62-1.52-14.438-2.045c-1.81-0.197-3.607-0.299-5.387-0.365c-15.427,9.395-41.158,11.494-58.97,5.813
			c-2.66-0.855-5.094-2.182-7.351-3.783c-7.373-3.51-11.909-8.955-13.844-15.059c-0.177-0.236-0.352-0.494-0.519-0.725
			c-5.123-7.436-3.245-15.009,2.171-22.171c9.513-12.54,28.185-17.527,45.929-13.173c7.273,1.778,13.285,4.661,18.408,8.261
			c9.426,4.821,16.679,11.585,18.125,20.212c1.33,2.166,2.591,4.363,3.785,6.582C133.194,95.287,135.725,96.902,138.659,98.275z"/>
		<path fill="#603616" d="M72.56,112.15c21.743,5.377,43.926-1.525,49.567-15.408c5.641-13.881-7.411-29.494-29.144-34.871
			c-21.743-5.37-43.926,1.533-49.566,15.415C37.776,91.168,50.827,106.781,72.56,112.15z"/>
		<path fill="#824D20" d="M108.468,85.523c3.119-7.673-0.957-16.001-9.541-21.813c-1.897-0.686-3.872-1.319-5.944-1.838
			c-20.199-4.988-40.787,0.632-48.118,12.592c-0.607,9.747,9.179,19.603,24.185,23.31C86.334,102.051,103.981,96.566,108.468,85.523
			z"/>
		<path opacity="0.4" fill="#FDDE85" enable-background="new    " d="M68.17,80.344c6.404-1.853,10.441-5.804,9.003-8.824
			c-1.436-3.021-7.8-3.966-14.205-2.105c-6.404,1.861-10.441,5.804-9.013,8.832C55.402,81.252,61.758,82.197,68.17,80.344z"/>
		<path fill="#C4642C" d="M196.867,109.84c-0.245-0.824-1.32-1.084-2.141-0.74c-1.438,0.602-2.26,2.121-3.041,3.256
			c-1.018,1.48-1.75,3.25-2.229,4.904c-0.897,3.205,4.763,3.928,5.271,0.611c0.205-1.35,0.752-2.678,1.3-3.959
			C196.555,112.652,197.268,111.166,196.867,109.84z"/>
	</g>
</g>
</svg>
